<svg width="296" height="296" version="1.1" xmlns="http://www.w3.org/2000/svg" xmlns:xlink="http://www.w3.org/1999/xlink"><path d="M255.74 191.13L263.44 195.27Q263.44 197.05 260.48 198.53L260.48 198.53L234.73 200.30Q223.48 200.01 216.38 197.05L216.38 197.05Q199.50 177.81 178.19 139.92L178.19 139.92L166.35 118.90Q165.46 117.13 164.28 115.65L164.28 115.65L153.62 104.40Q153.33 104.10 153.33 103.81L153.33 103.81Q155.40 102.03 162.50 102.92L162.50 102.92Q164.87 104.99 174.64 116.54L174.64 116.54Q175.23 117.13 175.82 117.42L175.82 117.42Q201.28 89.60 201.28 81.61L201.28 81.61L200.69 76.87Q201.28 76.28 202.17 75.98L202.17 75.98Q214.90 76.28 224.66 88.12L224.66 88.12Q224.66 93.15 216.67 96.70L216.67 96.70Q212.53 98.78 211.34 99.66L211.34 99.66L179.38 122.16Q207.50 164.19 255.74 191.13L255.74 191.13ZM187.07 36.32L187.07 36.32Q187.07 41.65 179.38 44.61L179.38 44.61L173.46 46.68Q153.92 57.04 130.24 72.73L130.24 72.73L132.02 86.64L149.18 83.09Q160.43 81.90 160.73 90.19L160.73 90.19Q157.47 91.97 142.38 95.82L142.38 95.82Q137.05 97.30 133.50 99.07L133.50 99.07Q134.09 100.85 135.57 115.35L135.57 115.35L136.16 119.79Q136.75 119.79 143.26 117.42L143.26 117.42Q155.70 117.42 158.66 119.79L158.66 119.79Q159.54 120.38 160.14 121.27L160.14 121.27Q159.84 125.12 140.01 128.97L140.01 128.97Q137.94 129.56 137.34 129.56L137.34 129.56Q137.34 142.88 138.82 152.06L138.82 152.06Q157.18 147.91 163.69 149.10L163.69 149.10Q170.50 150.58 174.05 155.90L174.05 155.90L170.79 158.86L143.26 163.01L139.71 163.90Q140.60 198.23 140.01 206.52L140.01 206.52Q137.34 239.08 118.70 251.51L118.70 251.51Q114.85 253.58 112.78 252.40L112.78 252.40Q103.01 236.42 88.80 219.25L88.80 219.25L88.80 218.06Q91.46 218.36 103.90 222.80L103.90 222.80Q108.93 224.58 112.48 224.87L112.48 224.87Q124.91 209.78 125.21 171.89L125.21 171.89Q125.21 170.11 125.21 167.15L125.21 167.15Q124.02 167.45 98.86 171.59L98.86 171.59L96.50 171.89Q85.25 169.22 82.88 163.60L82.88 163.60L84.95 162.12L124.62 155.90L125.21 155.61L123.73 133.70Q115.14 135.48 108.34 134.00L108.34 134.00L102.71 131.63L100.64 130.15Q104.78 127.78 118.70 125.71L118.70 125.71Q121.06 125.12 122.84 124.82L122.84 124.82L121.06 102.03L121.06 101.74Q113.37 102.92 107.74 101.74Q102.12 100.55 98.27 97.00L98.27 97.00L100.64 94.93L118.70 91.67Q117.22 76.28 108.93 66.81L108.93 66.81L108.93 65.03Q116.62 65.03 126.10 70.06L126.10 70.06L155.99 37.21Q155.99 34.25 153.92 32.77L153.92 32.77Q150.37 30.40 99.75 47.57L99.75 47.57L94.72 49.34Q84.95 52.60 84.36 52.60L84.36 52.60Q81.70 52.90 78.74 52.30L78.74 52.30Q69.26 49.64 66.60 43.13L66.60 43.13Q66.01 41.35 66.01 39.87L66.01 39.87L68.38 38.10Q90.87 40.17 121.06 30.40L121.06 30.40Q126.10 28.92 132.31 26.55L132.31 26.55Q151.26 19.45 157.18 18.56L157.18 18.56Q164.28 17.67 178.19 27.44L178.19 27.44Q185.30 32.18 187.07 36.32ZM99.75 110.91L99.75 110.91Q99.75 113.28 96.50 116.83L96.50 116.83Q95.31 118.02 94.72 118.90L94.72 118.90Q93.83 120.68 85.54 136.66L85.54 136.66Q84.66 138.44 83.77 139.92L83.77 139.92Q51.80 195.86 10.95 209.48L10.95 209.48L8.88 209.18L8.88 208.30Q54.76 175.74 76.07 119.20L76.07 119.20Q76.07 116.54 74.59 115.65L74.59 115.65Q70.15 115.65 54.46 121.27L54.46 121.27Q37.89 126.90 29.30 119.50L29.30 119.50Q28.12 118.61 27.23 117.42L27.23 117.42Q27.23 114.76 29.01 114.46L29.01 114.46Q30.19 113.87 43.81 112.39L43.81 112.39Q53.28 110.91 76.96 103.81L76.96 103.81Q84.95 101.44 94.13 106.77L94.13 106.77Q97.09 108.54 99.75 110.91Z" stroke="#000" fill="black" /></svg>