<svg width="296" height="296" version="1.1" xmlns="http://www.w3.org/2000/svg" xmlns:xlink="http://www.w3.org/1999/xlink"><path d="M234.73 97.58L267.58 113.57Q267.58 115.34 265.81 115.94L265.81 115.94L236.21 116.53L224.37 115.34Q221.11 114.75 219.04 113.57L219.04 113.57Q210.46 108.83 176.42 63.84L176.42 63.84Q140.30 128.37 119.29 128.96L119.29 128.96L119.29 127.78Q148 96.99 158.95 67.98L158.95 67.98Q166.35 49.04 162.80 35.72L162.80 35.72Q169.31 31.28 179.97 37.50L179.97 37.50Q183.82 39.86 185.59 42.53L185.59 42.53Q185.30 45.78 180.56 54.66L180.56 54.66L179.38 57.33Q198.02 79.23 234.73 97.58L234.73 97.58ZM177.90 158.56L177.90 158.56Q177.60 152.05 192.10 158.86L192.10 158.86Q198.02 161.82 199.80 163.59L199.80 163.59L200.98 169.51Q200.98 180.17 185.30 166.26L185.30 166.26Q179.97 161.52 177.90 158.56ZM234.43 135.18L234.43 135.18Q234.43 138.73 231.77 142.58L231.77 142.58Q229.40 159.15 229.40 179.87L229.40 179.87L232.36 229.30Q232.66 261.27 219.93 272.22L219.93 272.22L215.19 271.63Q201.28 255.06 184.41 242.92L184.41 242.92L184.41 241.44Q186.18 241.44 200.69 244.70L200.69 244.70Q207.20 246.18 211.94 246.18L211.94 246.18Q216.38 239.66 215.49 196.45L215.49 196.45Q215.49 189.05 215.19 185.20L215.19 185.20Q195.06 205.62 188.26 214.50L188.26 214.50Q177.01 213.32 174.64 211.84L174.64 211.84L172.27 210.06Q172.27 207.10 176.12 205.03L176.12 205.03Q190.33 197.34 215.19 179.87L215.19 179.87L215.49 153.23Q214.60 137.84 209.86 135.47L209.86 135.47L191.51 139.91Q179.67 141.39 177.01 133.70L177.01 133.70Q200.98 129.55 210.75 123.63L210.75 123.63Q225.26 124.52 234.43 135.18ZM139.71 174.84L139.71 174.84Q136.16 182.54 117.51 163.30L117.51 163.30L117.51 159.15Q139.71 159.74 139.71 174.84ZM169.61 140.50L169.61 140.50Q169.61 141.39 167.54 147.90L167.54 147.90L166.94 149.38Q163.98 167.44 166.35 209.18L166.35 209.18Q166.94 224.57 166.94 233.45L166.94 233.45Q166.94 248.84 156.88 259.79L156.88 259.79Q152.74 259.79 150.37 257.72L150.37 257.72Q149.78 257.42 145.93 252.10L145.93 252.10L144.74 250.91L130.83 237.00L145.34 239.07Q150.96 239.07 152.44 234.34L152.44 234.34Q155.40 225.16 155.10 167.44L155.10 167.44Q155.10 151.16 154.51 147.31L154.51 147.31Q152.74 139.02 144.74 141.98L144.74 141.98L133.79 145.83L129.06 145.54Q125.80 144.65 123.73 141.10L123.73 141.10L142.97 135.77Q147.11 133.99 150.37 131.62L150.37 131.62Q158.95 131.62 169.61 140.50ZM150.07 186.38L150.07 186.38L149.18 189.64L123.73 220.72Q111 220.13 107.15 217.17L107.15 217.17Q105.97 216.28 105.38 215.39L105.38 215.39Q105.38 212.73 110.41 210.66L110.41 210.66Q111.30 210.36 111.89 210.06L111.89 210.06Q115.74 207.99 138.82 193.19L138.82 193.19Q145.04 189.05 150.07 186.38ZM122.84 110.61L122.84 110.61Q122.84 112.98 117.81 118.30L117.81 118.30L116.03 120.97Q115.44 122.15 108.04 145.24L108.04 145.24Q101.23 166.85 95.90 167.44L95.90 167.44Q93.83 167.74 86.73 159.15L86.73 159.15L72.82 160.93Q80.51 168.03 80.22 171.88L80.22 171.88L79.03 185.50L100.34 183.13Q116.03 182.83 116.62 189.34L116.62 189.34L116.03 190.82Q109.82 193.49 79.33 195.86L79.33 195.86L78.44 197.04L78.14 259.79L74.89 265.12Q74 266.01 72.22 266.01L72.22 266.01Q60.38 254.17 61.86 241.44L61.86 241.44Q61.86 240.55 62.16 239.66L62.16 239.66Q64.23 229.60 66.30 199.11L66.30 199.11Q60.68 199.11 40.55 204.44L40.55 204.44Q19.54 210.06 9.18 202.96L9.18 202.96Q6.81 201.48 4.74 199.11L4.74 199.11Q4.74 196.15 7.99 194.97L7.99 194.97Q18.35 194.67 57.42 189.34L57.42 189.34Q62.16 188.46 66.30 188.16L66.30 188.16Q66.30 170.99 63.05 161.52L63.05 161.52Q59.79 161.52 52.98 163.30L52.98 163.30L51.21 168.62Q44.99 166.55 41.74 154.12L41.74 154.12Q35.52 125.41 32.26 117.12L32.26 117.12Q30.78 113.57 29.30 110.31L29.30 110.31Q29.30 107.65 30.19 106.46L30.19 106.46Q40.55 107.94 44.40 109.72L44.40 109.72Q57.42 105.87 68.38 104.39L68.38 104.39Q68.38 104.10 71.34 81.01L71.34 81.01Q71.34 80.12 71.34 79.53L71.34 79.53Q62.16 81.30 54.17 80.12L54.17 80.12Q46.77 78.64 42.03 74.50L42.03 74.50Q42.33 70.94 71.63 67.98L71.63 67.98L73.11 43.12Q72.82 33.65 68.67 28.32L68.67 28.32Q68.38 19.44 86.43 31.58L86.43 31.58Q89.98 33.94 91.46 35.13L91.46 35.13Q91.46 37.20 88.21 45.78L88.21 45.78Q87.62 47.86 87.32 49.34L87.32 49.34L84.95 63.84L103.90 59.40Q108.63 58.81 113.37 59.99L113.37 59.99Q118.40 63.25 118.10 63.25L118.10 63.25L119.29 65.91L119.29 66.50Q115.14 69.46 83.18 76.27L83.18 76.27L78.44 101.73L100.94 98.18Q105.08 97.88 108.63 98.47L108.63 98.47L119.58 106.46Q121.66 108.24 122.84 110.61ZM101.23 111.50L101.23 111.50Q99.75 107.06 94.13 107.06L94.13 107.06Q80.22 107.35 47.06 116.82L47.06 116.82L49.43 131.92L80.22 126.00Q85.84 127.18 88.21 129.26L88.21 129.26Q88.80 136.95 56.54 139.02L56.54 139.02Q52.98 139.32 50.62 139.32L50.62 139.32L53.58 155.90L78.74 151.46Q81.70 151.16 84.06 151.16L84.06 151.16Q86.43 153.23 89.39 151.46L89.39 151.46Q90.58 150.86 91.46 149.98L91.46 149.98Q98.86 128.07 101.23 111.50Z" stroke="#000" fill="black" /></svg>