<svg width="296" height="296" version="1.1" xmlns="http://www.w3.org/2000/svg" xmlns:xlink="http://www.w3.org/1999/xlink"><path d="M261.37 102.52L261.37 102.52Q261.37 104.89 256.93 106.37L256.93 106.37L236.50 107.85L231.77 108.74L232.66 171.79L235.32 220.04L235.32 220.33Q235.32 237.50 230.29 249.93L230.29 249.93Q227.33 257.04 223.48 257.04L223.48 257.04Q221.11 257.04 209.86 243.12L209.86 243.12Q203.94 235.43 201.87 233.95L201.87 233.95L190.33 225.07Q188.26 223.00 187.07 220.63L187.07 220.63Q189.74 219.74 208.38 223.00L208.38 223.00Q212.23 223.59 214.01 223.88L214.01 223.88Q217.56 222.40 218.74 217.37L218.74 217.37L218.74 110.52Q214.30 110.52 196.84 114.96L196.84 114.96L185.59 116.73Q178.19 117.03 172.27 113.77L172.27 113.77L170.79 110.52Q181.15 106.96 216.67 99.27L216.67 99.27Q217.56 99.27 218.15 98.97L218.15 98.97L218.15 56.35Q218.15 48.65 211.64 40.36L211.64 40.36Q209.27 37.11 208.98 35.33L208.98 35.33Q208.09 25.56 228.22 36.22L228.22 36.22Q235.02 40.07 237.39 42.14L237.39 42.14Q237.39 43.62 235.02 57.53L235.02 57.53Q234.73 58.42 234.73 58.72L234.73 58.72Q232.36 73.81 232.36 93.94L232.36 93.94L242.13 92.76Q250.42 92.76 258.41 99.56L258.41 99.56Q260.48 101.04 261.37 102.52ZM205.42 156.99L205.42 156.99Q206.61 164.39 205.13 168.53L205.13 168.53L203.94 170.60Q202.17 172.08 199.21 171.79L199.21 171.79L196.54 170.60L196.25 170.31L179.38 146.04Q179.38 142.78 180.86 141.30L180.86 141.30Q197.73 145.44 205.42 156.99ZM93.83 57.83L93.83 57.83Q92.65 59.90 85.25 59.90L85.25 59.90L61.57 40.66Q60.68 40.07 60.09 39.48L60.09 39.48Q60.09 35.04 61.57 33.85L61.57 33.85L79.92 36.81Q89.39 39.48 92.65 45.10L92.65 45.10Q93.83 48.06 93.83 57.83ZM167.83 156.40L166.94 157.88L169.31 221.81Q169.31 226.55 169.02 230.99L169.02 230.99Q168.42 243.72 156.58 255.56L156.58 255.56Q150.66 254.08 141.19 244.60L141.19 244.60Q138.23 241.35 136.46 239.87L136.46 239.87L123.73 229.80Q122.25 228.32 121.06 226.84L121.06 226.84Q122.54 226.55 148.59 230.10L148.59 230.10Q153.62 218.56 153.62 173.56L153.62 173.56Q119.58 210.27 99.46 223.29L99.46 223.29Q81.70 235.13 68.67 234.84L68.67 234.84L68.67 233.95Q111.59 201.68 130.24 180.67L130.24 180.67Q142.38 167.35 150.37 153.73L150.37 153.73L148.59 153.73Q122.25 164.98 115.74 168.83L115.74 168.83Q112.18 170.90 109.22 172.97L109.22 172.97L107.15 172.97L96.79 166.16Q93.83 163.50 93.83 159.65L93.83 159.65Q97.09 158.17 109.82 156.40L109.82 156.40Q111.30 156.10 112.48 156.10L112.48 156.10L110.70 87.43Q110.41 80.62 105.38 64.34L105.38 64.34Q106.26 62.56 112.18 63.45L112.18 63.45L116.62 66.71Q126.69 49.54 130.54 34.44L130.54 34.44Q131.13 31.78 131.13 30.00L131.13 30.00L130.83 23.20L130.83 22.90Q130.83 15.50 148.30 24.38L148.30 24.38Q153.03 26.45 154.51 27.93L154.51 27.93L153.92 31.19L134.68 50.72Q127.87 58.12 124.02 65.23L124.02 65.23Q132.90 65.23 148.59 57.24L148.59 57.24Q160.73 57.53 172.27 69.08L172.27 69.08Q172.27 72.04 169.31 77.36L169.31 77.36Q168.13 88.91 167.24 131.83L167.24 131.83Q166.94 137.16 166.94 141.60L166.94 141.60Q172.86 146.92 172.86 147.81L172.86 147.81Q173.46 149.29 167.83 156.40L167.83 156.40ZM122.54 153.14L153.62 144.85Q154.22 139.82 153.62 125.32L153.62 125.32L153.03 79.14L153.03 78.84Q153.03 72.04 147.41 69.96L147.41 69.96Q145.63 69.37 143.56 69.96L143.56 69.96Q126.98 74.11 123.43 74.70L123.43 74.70L122.54 95.12Q144.15 88.61 148.89 98.97L148.89 98.97L148 100.16Q143.86 101.93 129.35 103.41L129.35 103.41L122.54 104.60L122.84 121.47Q133.79 116.73 142.97 118.80L142.97 118.80Q149.48 120.28 149.48 126.20L149.48 126.20Q144.74 128.57 130.54 129.76L130.54 129.76Q125.80 130.35 122.54 131.24L122.54 131.24L122.54 153.14ZM102.12 80.92L102.12 80.92Q102.12 84.47 97.98 85.36L97.98 85.36L76.07 89.80Q72.22 90.68 37.89 100.75L37.89 100.75Q29.30 103.41 20.72 100.75L20.72 100.75Q14.50 98.97 10.95 94.83L10.95 94.83Q10.95 91.57 12.73 90.09L12.73 90.09Q33.45 88.32 61.57 81.21L61.57 81.21L82.58 75.88Q83.47 75.59 84.36 75.59L84.36 75.59Q90.28 74.70 95.61 76.77L95.61 76.77Q99.75 78.25 102.12 80.92ZM87.91 111.40L87.91 111.40Q87.91 115.25 83.47 116.73L83.47 116.73Q63.34 123.24 60.38 123.84L60.38 123.84Q47.95 126.20 40.55 121.47L40.55 121.47L39.96 120.28Q40.26 119.10 42.33 117.92L42.33 117.92Q44.40 117.62 61.57 111.40L61.57 111.40Q80.22 104.60 87.91 111.40ZM87.02 138.64L87.91 139.82L87.02 143.67Q84.06 143.96 67.19 149.88L67.19 149.88Q50.62 155.51 39.96 149.29L39.96 149.29Q39.96 146.33 44.70 145.44L44.70 145.44L70.45 136.56Q74 135.68 76.96 135.68L76.96 135.68Q82.29 135.68 87.02 138.64L87.02 138.64ZM94.42 172.08L94.42 172.08Q94.42 174.75 90.28 180.37L90.28 180.37Q88.50 182.74 87.91 184.52L87.91 184.52L82.88 200.20L87.62 203.16Q88.50 204.35 88.50 205.83L88.50 205.83L86.43 207.31Q67.49 209.68 49.14 214.41L49.14 214.41Q50.62 226.25 47.66 230.10L47.66 230.10Q40.26 227.73 37.89 215.00L37.89 215.00Q34.04 191.92 25.46 174.75L25.46 174.75Q25.46 172.38 26.94 171.20L26.94 171.20Q34.93 171.79 40.85 174.45L40.85 174.45Q66.90 166.16 75.18 162.02L75.18 162.02Q81.99 162.02 92.94 170.90L92.94 170.90Q93.83 171.79 94.42 172.08ZM73.41 178.89L73.41 176.23Q69.86 172.68 47.66 179.48L47.66 179.48Q45.88 180.08 44.70 180.37L44.70 180.37Q45.58 193.10 48.25 205.24L48.25 205.24L70.15 198.43L73.41 178.89Z" stroke="#000" fill="black" /></svg>