<?xml version="1.0" standalone="no"?>
<!DOCTYPE svg PUBLIC "-//W3C//DTD SVG 20010904//EN"
 "http://www.w3.org/TR/2001/REC-SVG-20010904/DTD/svg10.dtd">
<svg version="1.0" xmlns="http://www.w3.org/2000/svg"
 width="1000.000000pt" height="563.000000pt" viewBox="0 0 1000.000000 563.000000"
 preserveAspectRatio="xMidYMid meet">
<metadata>
Created by potrace 1.16, written by Peter Selinger 2001-2019
</metadata>
<g transform="translate(0.000000,563.000000) scale(0.100000,-0.100000)"
fill="#000000" stroke="none">
<path d="M0 2815 l0 -2815 939 0 939 0 -9 38 c-17 77 32 517 87 772 26 125 85
343 90 338 1 -2 -10 -123 -26 -268 -29 -260 -90 -850 -90 -870 0 -5 6 -10 13
-10 9 0 16 38 25 138 40 445 173 1547 252 2087 44 300 102 668 107 674 2 3 20
-15 40 -40 60 -73 161 -169 177 -169 12 0 14 48 14 326 1 180 5 331 9 335 5 5
15 -14 22 -43 8 -29 25 -80 38 -113 21 -51 28 -97 44 -295 40 -498 107 -1111
165 -1510 42 -298 95 -595 107 -603 7 -4 25 -5 41 -2 20 3 32 0 41 -11 9 -14
14 -14 20 -4 6 9 4 11 -6 5 -10 -6 -11 -5 -3 4 8 8 19 7 45 -6 34 -18 49 -22
82 -27 10 -1 22 -8 26 -15 5 -7 21 -12 37 -10 16 1 37 -2 47 -6 10 -4 21 -5
24 -1 4 3 -2 6 -12 6 -10 0 -16 2 -13 5 3 4 18 3 33 -1 l28 -7 -7 -236 c-3
-130 -9 -291 -13 -359 l-6 -122 662 0 661 0 0 76 0 76 48 -28 c139 -80 234
-125 254 -122 18 3 7 12 -52 42 -176 90 -571 329 -818 495 -222 148 -324 230
-474 382 -119 120 -142 149 -177 221 -23 46 -50 119 -61 163 -11 44 -45 291
-75 550 -77 646 -158 1291 -201 1592 l-36 252 49 193 48 193 7 -65 c4 -36 11
-118 17 -182 14 -150 41 -301 80 -454 l30 -121 -34 -85 c-40 -97 -53 -168 -37
-201 5 -12 18 -52 27 -89 9 -37 31 -89 48 -115 l32 -48 3 30 c16 166 111 381
237 535 51 62 152 157 159 149 2 -2 24 -44 49 -94 25 -49 57 -109 71 -131 25
-41 26 -42 7 -66 -32 -41 -79 -141 -96 -203 -86 -331 165 -641 474 -586 152
27 275 122 349 269 111 222 63 506 -108 641 -66 53 -140 74 -255 75 -81 0 -97
-3 -158 -32 -38 -17 -87 -46 -108 -63 l-39 -31 6 74 c14 177 22 249 27 255 17
16 124 35 228 40 146 7 235 -11 357 -72 120 -60 169 -111 239 -248 95 -187
313 -499 378 -541 14 -9 25 -25 25 -36 0 -37 17 -20 33 33 9 28 30 102 46 162
25 92 36 117 65 149 20 21 74 92 119 159 266 389 428 751 591 1324 l52 181
106 -66 c58 -37 114 -72 125 -79 15 -9 23 -30 31 -84 6 -41 9 -75 7 -77 -2 -2
-40 9 -84 24 -79 28 -113 28 -75 -1 18 -15 18 -15 0 -26 -35 -21 -81 -67 -74
-74 4 -4 30 12 58 35 l52 43 53 -17 c30 -9 60 -23 68 -30 14 -15 53 -418 42
-436 -3 -6 -22 -10 -42 -10 -74 0 -212 -48 -242 -84 -18 -21 -10 -20 73 10 72
26 207 56 215 48 3 -2 7 -44 9 -93 l4 -88 -73 -7 c-166 -17 -343 -80 -429
-153 -58 -50 -37 -65 26 -20 47 33 150 89 129 70 -5 -5 -31 -26 -57 -47 -62
-49 -188 -226 -161 -226 5 0 31 19 58 41 105 88 263 139 428 139 99 0 97 3 97
-122 l0 -78 -78 0 c-430 0 -624 -585 -298 -898 79 -76 163 -118 267 -132 173
-24 351 42 449 165 136 170 153 439 39 620 -43 70 -124 151 -186 186 l-52 30
49 74 c26 41 50 80 52 87 6 18 183 -72 273 -139 250 -186 440 -514 422 -730
-4 -57 -3 -62 11 -51 8 7 28 40 44 73 l28 60 0 -37 c0 -50 -46 -576 -70 -806
-50 -472 -72 -637 -89 -665 -10 -15 -71 -91 -137 -168 -133 -157 -206 -214
-424 -328 -387 -203 -1307 -545 -1627 -607 -42 -8 -79 -17 -82 -19 -2 -3 23
-5 57 -5 95 0 418 99 877 269 l240 88 9 -178 9 -179 478 0 c264 0 479 2 479 3
0 2 15 102 34 223 112 714 198 1421 257 2124 18 212 36 387 39 390 4 3 7 60 7
128 0 122 0 122 36 180 290 474 458 1228 426 1915 -7 165 -31 373 -44 386 -15
14 -15 -26 1 -210 62 -752 -87 -1512 -407 -2071 l-52 -91 -29 56 c-24 49 -29
74 -38 196 -22 316 -92 706 -204 1146 l-54 210 -6 210 c-10 337 -40 720 -63
813 -13 54 -23 12 -23 -100 0 -248 -26 -588 -65 -863 -25 -174 -58 -355 -65
-355 -28 0 -479 264 -536 313 -22 19 -28 42 -54 194 -27 163 -33 235 -56 721
-5 101 -8 112 -25 112 -10 0 -19 -6 -19 -12 -2 -92 -129 -759 -149 -781 -4 -4
-41 28 -83 71 -58 59 -79 88 -88 122 -19 69 -33 28 -20 -57 14 -84 50 -153
112 -208 26 -24 48 -50 48 -58 0 -29 -100 -365 -161 -542 -101 -294 -265 -657
-373 -828 -89 -140 -199 -292 -203 -280 -3 7 12 72 33 145 20 73 60 239 89
368 29 129 113 478 188 775 74 297 138 556 142 575 11 53 14 54 45 12 28 -39
80 -86 87 -79 2 3 -19 38 -47 79 -28 40 -51 83 -52 93 0 11 13 88 30 170 36
174 62 338 62 395 l0 40 -69 0 -70 0 -5 -42 c-3 -24 -10 -110 -16 -192 -6 -81
-13 -153 -17 -160 -4 -6 -8 -31 -9 -56 -2 -25 -8 -87 -15 -139 -11 -83 -14
-92 -25 -76 -22 30 -54 122 -84 240 -19 76 -30 104 -35 92 -17 -42 31 -230 87
-342 26 -52 29 -67 24 -112 -17 -143 -243 -1240 -326 -1578 -27 -110 -65 -272
-85 -360 -44 -191 -49 -203 -64 -150 -104 387 -200 996 -231 1465 -7 96 -15
204 -20 240 -15 127 -11 -176 5 -381 34 -426 95 -827 171 -1113 30 -115 53
-213 51 -219 -4 -14 -87 86 -155 189 -125 188 -306 544 -305 601 1 20 -7 39
-21 52 -30 28 -106 252 -88 259 10 3 8 10 -8 27 -24 26 -76 203 -114 388 -25
122 -66 384 -66 423 0 13 16 32 43 51 64 47 146 131 167 173 23 46 38 140 21
140 -6 0 -61 -52 -123 -116 -104 -107 -113 -114 -119 -93 -21 73 -4 540 27
747 6 37 4 42 -14 42 -16 0 -27 -20 -60 -112 -79 -224 -252 -854 -252 -920 0
-10 -77 -66 -215 -155 -299 -193 -317 -204 -323 -198 -3 3 -6 54 -6 115 -1
105 -6 130 -20 93 -11 -29 -4 -233 11 -321 12 -74 12 -89 -1 -130 -17 -52
-105 -404 -131 -526 -11 -47 -30 -99 -49 -129 l-31 -50 -12 44 c-82 280 -123
668 -103 968 17 254 77 605 130 756 35 98 34 93 11 67 -35 -40 -97 -254 -131
-452 -17 -102 -38 -214 -46 -250 -42 -180 -89 -418 -124 -620 -21 -124 -54
-308 -74 -410 -19 -102 -47 -261 -61 -355 -14 -93 -28 -181 -31 -195 l-6 -25
-24 30 c-105 131 -231 493 -270 780 -25 178 -25 604 0 790 58 447 165 786 374
1198 2 4 -1 7 -6 7 -17 0 -100 -141 -147 -247 -119 -271 -212 -627 -257 -983
-21 -165 -17 -624 6 -780 11 -69 19 -134 19 -145 -1 -11 -5 -110 -10 -220 -4
-110 -5 -276 0 -369 4 -92 5 -171 1 -175 -9 -9 -139 134 -190 210 -93 140
-175 383 -221 656 -14 84 -18 163 -18 358 0 259 7 331 51 569 23 122 30 140
117 320 52 105 119 233 151 285 59 96 66 133 15 71 -41 -48 -95 -141 -172
-295 -202 -406 -332 -821 -407 -1307 l-19 -123 5 135 c17 434 106 848 279
1290 95 243 206 458 336 652 33 48 59 90 59 93 0 3 -567 5 -1260 5 l-1260 0 0
-2815z m4329 2570 c-5 -50 -9 -204 -8 -342 1 -186 -2 -257 -11 -268 -6 -8 -56
-48 -111 -90 -74 -57 -99 -72 -99 -58 0 24 82 357 121 491 49 172 111 364 115
360 2 -2 -1 -44 -7 -93z m1890 -347 c39 -183 74 -379 68 -384 -5 -6 -202 144
-202 154 0 4 20 98 45 210 29 133 47 196 51 183 4 -10 21 -84 38 -163z m844
-420 c53 -176 117 -420 117 -448 0 -17 -4 -18 -27 -9 -75 27 -223 104 -223
115 0 8 13 91 29 186 17 95 33 203 37 241 4 37 10 67 14 67 4 0 28 -69 53
-152z m-5033 105 c0 -5 -18 -61 -39 -127 l-38 -119 -104 -42 c-174 -70 -369
-174 -536 -287 -40 -27 -73 -46 -73 -43 0 36 353 480 404 507 43 23 227 85
306 102 82 18 80 17 80 9z m2329 -231 c1 -17 -7 -26 -29 -34 -60 -21 -190 -88
-190 -98 0 -17 21 -11 126 34 l102 43 26 -131 c14 -72 42 -189 61 -261 19 -71
33 -130 31 -132 -2 -2 -23 6 -48 17 -52 23 -152 50 -185 50 -47 0 -20 -16 80
-48 169 -55 165 -52 204 -166 18 -55 32 -101 30 -102 -1 -1 -32 12 -68 29
-119 58 -193 72 -383 72 l-168 0 7 69 c8 88 11 93 51 108 40 14 40 35 -1 30
l-28 -4 7 55 c10 89 87 492 94 495 4 1 63 38 132 81 l125 79 12 -81 c6 -45 12
-92 12 -105z m2346 -148 c99 -47 181 -87 182 -88 3 -3 -65 -282 -88 -356 -11
-39 -25 -70 -30 -70 -6 0 -27 9 -49 20 -42 21 -80 26 -80 11 0 -6 27 -22 60
-37 33 -15 60 -32 60 -38 0 -30 -43 -136 -55 -136 -7 0 -40 7 -72 15 -32 8
-94 18 -138 22 l-80 8 -3 89 c-2 65 1 92 10 98 10 6 9 11 -4 19 -13 7 -18 23
-18 57 0 26 -7 118 -15 206 -9 87 -13 161 -11 163 3 3 28 -3 56 -12 73 -24 73
-12 -1 26 -35 17 -65 32 -66 33 -1 0 -5 34 -9 75 l-7 73 89 -46 c49 -25 170
-84 269 -132z m-2699 5 c-14 -74 -35 -192 -46 -264 -12 -71 -22 -130 -23 -131
-139 -68 -239 -121 -274 -145 -24 -17 -45 -29 -47 -27 -17 25 -69 271 -81 383
-6 56 -5 61 17 71 41 19 402 211 438 232 19 12 36 20 38 18 2 -2 -8 -64 -22
-137z m-1921 -85 c-26 -218 -20 -558 14 -736 l8 -48 -32 0 c-73 0 -116 77
-133 239 -10 93 -9 97 32 265 43 172 116 419 123 413 2 -2 -4 -62 -12 -133z
m5047 -117 l62 -22 32 -155 c56 -276 134 -794 120 -807 -2 -2 -26 27 -53 64
-63 85 -199 216 -282 272 -35 24 -106 63 -159 88 -54 25 -99 46 -101 48 -4 5
39 135 46 135 3 0 53 -34 112 -75 113 -80 297 -245 320 -288 15 -27 41 -37 41
-15 0 43 -176 214 -339 328 -51 36 -100 70 -109 76 -14 10 -12 23 16 120 18
60 41 150 52 199 12 50 23 97 26 107 4 14 14 12 79 -18 41 -19 103 -45 137
-57z m-3592 -205 c0 -10 11 -56 24 -101 l24 -84 -34 -35 c-53 -54 -46 -70 12
-26 l34 26 9 -23 c25 -68 25 -66 -35 -104 -31 -20 -81 -59 -110 -87 -42 -39
-54 -47 -54 -32 0 33 114 484 122 484 4 0 8 -8 8 -18z m384 -94 c-10 -93 -13
-97 -84 -122 -36 -12 -89 -34 -118 -49 -30 -15 -56 -27 -58 -27 -5 0 -21 40
-29 73 -5 19 3 29 47 59 54 37 224 128 240 128 5 0 6 -28 2 -62z m-38 -333
c-3 -8 -8 -74 -12 -147 -4 -73 -10 -139 -14 -147 -5 -9 -29 30 -69 110 -34 67
-58 126 -54 130 5 5 33 22 63 38 61 34 96 40 86 16z m2614 -46 c25 -5 62 -14
83 -20 l38 -10 -42 -80 c-23 -45 -48 -83 -55 -86 -8 -3 -36 0 -64 7 -56 14
-55 9 -43 133 7 74 6 74 83 56z m-2201 -215 c98 -29 192 -142 226 -269 40
-156 -4 -313 -120 -431 -109 -110 -240 -149 -357 -104 -66 24 -147 93 -183
154 -36 62 -58 168 -52 253 12 168 146 338 309 394 66 23 109 24 177 3z m2091
-84 c0 -48 11 -50 65 -13 l39 26 53 -28 c109 -57 205 -194 224 -320 37 -237
-104 -447 -332 -496 -173 -37 -367 69 -452 248 -31 65 -32 73 -32 193 0 118 2
128 29 185 30 61 97 140 150 178 54 38 138 67 199 67 l57 0 0 -40z m-3231
-615 c63 -498 111 -903 111 -927 -1 -74 -161 328 -239 600 -48 167 -52 237
-21 352 23 84 101 303 106 297 2 -1 21 -147 43 -322z m271 -1870 c4 3 13 -1
19 -8 6 -8 26 -13 46 -12 19 0 35 -3 35 -8 0 -5 9 -7 20 -4 11 3 20 1 20 -3 0
-4 14 -13 30 -19 17 -5 30 -7 30 -4 0 3 8 -1 17 -8 11 -10 14 -10 9 -1 -4 6
-3 12 2 12 6 0 12 -6 15 -14 4 -9 14 -12 26 -9 12 3 21 1 21 -6 0 -6 5 -11 11
-11 5 0 7 5 3 12 -5 7 -3 8 7 2 8 -4 23 -10 34 -11 10 -2 22 -7 25 -12 3 -5
19 -11 35 -15 17 -3 39 -8 50 -11 11 -2 34 -8 51 -13 21 -7 35 -7 42 0 6 6 12
6 17 -3 6 -8 4 -10 -5 -4 -9 5 -11 4 -6 -4 4 -6 11 -9 16 -6 6 3 40 -14 77
-38 164 -107 197 -129 182 -124 -9 3 -83 24 -165 47 -293 81 -723 228 -716
244 1 3 2 20 2 36 l0 31 22 -20 c11 -11 24 -18 28 -16z m67 -121 c185 -71 666
-217 838 -254 29 -6 93 -37 155 -74 111 -67 122 -81 112 -145 l-5 -33 -51 6
c-251 33 -772 151 -1046 239 l-135 43 -3 119 c-2 111 0 145 12 145 3 0 58 -21
123 -46z m3670 -201 c-3 -10 -11 -55 -17 -100 l-12 -81 -117 -22 c-365 -68
-797 -128 -813 -112 -5 5 -8 47 -6 93 l3 84 90 12 c220 30 455 67 640 103 238
45 238 45 232 23z"/>
<path d="M4204 2956 c-90 -39 -122 -179 -60 -261 82 -108 256 -22 256 127 0
109 -98 176 -196 134z"/>
<path d="M6282 2893 c-92 -45 -125 -180 -65 -262 88 -117 260 -77 289 67 15
76 -31 157 -111 193 -49 23 -71 23 -113 2z"/>
<path d="M8190 5625 c0 -4 7 -19 15 -36 29 -55 133 -324 168 -434 83 -260 148
-555 194 -885 31 -229 31 -238 15 -1305 -13 -853 -30 -1285 -77 -1925 -24
-320 -79 -863 -101 -1002 l-6 -38 801 0 801 0 0 2815 0 2815 -905 0 c-498 0
-905 -2 -905 -5z"/>
<path d="M8189 3008 c-1 -2 -2 -167 -4 -368 -3 -361 -35 -1239 -55 -1480 -12
-144 -65 -584 -110 -905 -16 -121 -30 -228 -30 -237 0 -16 15 -18 174 -18
l173 0 8 83 c32 359 16 1373 -31 1912 -8 94 -23 292 -34 440 -11 149 -22 288
-25 310 -23 199 -29 242 -38 253 -8 11 -25 16 -28 10z"/>
<path d="M4845 1268 c-38 -6 -82 -14 -96 -19 -49 -19 -76 -102 -46 -143 12
-16 13 -12 13 31 0 75 21 99 97 107 173 19 183 19 214 3 25 -13 60 -15 204
-12 187 4 207 0 273 -50 36 -28 66 -87 66 -133 0 -38 -27 -75 -49 -67 -9 4
-74 8 -145 9 -148 2 -129 -13 24 -20 52 -2 107 -6 121 -10 21 -5 31 1 53 27
24 29 28 40 24 81 -6 61 -43 116 -104 157 l-48 31 -194 -4 c-158 -4 -200 -2
-223 9 -31 16 -77 17 -184 3z"/>
<path d="M2511 853 c-20 -119 -31 -290 -38 -575 -5 -244 -4 -278 9 -278 13 0
16 41 22 282 3 156 10 362 15 458 5 96 8 176 6 178 -2 2 -8 -27 -14 -65z"/>
</g>
</svg>
